<svg version="1.1" id="Layer_1" xmlns="http://www.w3.org/2000/svg" xmlns:xlink="http://www.w3.org/1999/xlink" x="0px" y="0px"
	 width="100%" viewBox="0 0 311 210" enable-background="new 0 0 311 210" xml:space="preserve">
<path fill="#010101" opacity="1.000000" stroke="none" 
	d="
M195.000000,211.000000 
	C130.000015,211.000000 65.500015,211.000000 1.000017,211.000000 
	C1.000012,141.000015 1.000012,71.000031 1.000006,1.000036 
	C104.666634,1.000024 208.333267,1.000024 311.999939,1.000012 
	C311.999939,70.999962 311.999939,140.999924 311.999969,210.999939 
	C273.166656,211.000000 234.333328,211.000000 195.000000,211.000000 
M223.879150,138.132584 
	C223.879150,138.132584 223.509735,138.046951 223.493134,137.804138 
	C223.493134,137.804138 223.082123,137.623260 222.850220,137.099380 
	C222.674835,137.023819 222.499451,136.948257 222.050034,136.225464 
	C218.735764,131.801834 215.421509,127.378189 211.683304,122.320030 
	C209.865250,122.320030 208.047195,122.320030 205.301544,122.320030 
	C206.608765,123.756073 207.209793,124.416344 207.965469,125.741943 
	C209.065369,127.168907 210.165268,128.595871 211.237579,130.489532 
	C211.414597,130.776123 211.670517,130.937897 212.226883,131.614929 
	C213.847275,133.733078 215.467682,135.851227 217.193665,138.659698 
	C219.467163,142.743240 223.814392,145.722549 223.061813,151.060822 
	C221.812912,151.406708 220.175995,151.387756 219.417313,152.194595 
	C218.548187,153.118881 217.995087,154.853058 218.199509,156.087158 
	C218.327820,156.861832 220.139816,157.915405 221.128494,157.847946 
	C222.351456,157.764496 224.342407,156.806503 224.504257,155.945038 
	C224.798645,154.378006 223.988541,152.603470 224.537994,150.965530 
	C225.988800,151.029678 227.439590,151.093842 228.810455,151.154465 
	C228.975494,152.670242 229.100891,153.821762 229.333755,155.636032 
	C232.443771,159.868149 236.025497,163.842255 238.523270,168.409225 
	C240.756790,172.493073 243.495087,172.003922 247.730469,171.285812 
	C242.514816,164.154419 237.741043,157.627228 232.693939,150.393005 
	C231.524948,148.574768 230.355942,146.756546 229.024506,144.685669 
	C235.918610,143.105347 236.473953,142.321121 235.913345,136.970215 
	C239.423065,137.201767 240.966568,135.386307 240.188309,132.144684 
	C239.979248,131.273911 237.601669,130.018600 236.823456,130.351517 
	C233.959030,131.576889 232.828629,133.775375 235.099731,136.653854 
	C235.201965,136.783463 235.275864,136.935425 234.469254,137.015930 
	C228.318130,135.916702 228.949478,140.531631 228.734909,144.133347 
	C227.296158,144.062210 226.155716,144.005814 224.886581,143.367920 
	C224.618271,142.835403 224.349960,142.302872 224.281769,141.111313 
	C224.207947,140.433594 224.134125,139.755890 224.285049,138.964737 
	C224.285049,138.964737 224.300232,138.601730 224.300232,138.601730 
	C224.300232,138.601730 224.031540,138.479843 223.879150,138.132584 
M215.848206,165.970154 
	C216.669464,165.889999 217.915314,166.115662 218.233826,165.673416 
	C219.266754,164.239288 220.208954,162.620895 220.618759,160.935532 
	C220.729462,160.480286 218.361832,158.720642 217.937454,158.964096 
	C216.458267,159.812698 215.089188,161.121475 214.165146,162.566650 
	C213.630173,163.403336 214.027939,164.836426 213.258484,166.100281 
	C210.465485,165.954819 208.363556,167.104813 208.856537,170.026062 
	C209.044647,171.140747 211.568207,172.855850 212.682205,172.625763 
	C215.561188,172.031158 216.339798,169.770676 215.009521,166.991470 
	C214.887421,166.736404 215.039856,166.349915 215.848206,165.970154 
M147.013123,125.902298 
	C148.881592,126.607292 150.731644,127.856590 152.621811,127.920517 
	C159.779694,128.162628 166.951889,127.943314 174.115952,128.062927 
	C176.714890,128.106323 179.359741,128.383423 181.888245,128.967148 
	C185.771774,129.863708 187.841644,132.780441 187.855606,136.545761 
	C187.868973,140.149246 185.746155,142.813553 182.078308,143.670959 
	C179.532318,144.266083 176.902466,144.742477 174.298950,144.804443 
	C167.679092,144.961929 161.052994,144.856812 154.262512,144.856812 
	C154.262512,154.132568 154.262512,163.029892 154.262512,171.908890 
	C159.224350,172.194214 159.615997,171.937469 159.661911,167.808914 
	C159.727722,161.892181 159.678680,155.974167 159.678680,149.957092 
	C165.199036,149.957092 169.697403,149.838974 174.187302,149.983704 
	C181.646683,150.224167 187.097870,155.090302 187.933456,162.239441 
	C188.183319,164.377075 187.522430,166.708282 188.132111,168.688034 
	C188.584610,170.157440 190.415863,171.202271 191.632980,172.436234 
	C192.394989,171.237228 193.666718,170.105698 193.835876,168.828201 
	C194.892944,160.845474 192.835587,153.771622 187.424164,148.813019 
	C189.779434,144.915466 192.808975,141.734543 193.713425,138.034195 
	C195.764954,129.640839 187.619370,123.614594 180.832245,123.108238 
	C170.587967,122.343964 160.280991,122.379181 149.998413,122.233177 
	C148.991852,122.218880 147.969574,123.311638 146.201050,123.709282 
	C144.564880,123.170685 142.945831,122.239983 141.289307,122.167633 
	C136.479584,121.957535 131.642960,121.902061 126.842941,122.202347 
	C125.335281,122.296677 123.910149,123.710037 122.447250,124.519669 
	C123.913658,125.688248 125.278053,127.664749 126.866676,127.865326 
	C130.751404,128.355789 134.739792,128.025406 139.090683,128.025406 
	C139.090683,129.735443 139.093140,131.019135 139.090302,132.302826 
	C139.063873,144.266464 138.964279,156.230957 139.105392,168.192612 
	C139.122101,169.609375 140.454834,171.010620 141.177536,172.419052 
	C142.553055,171.277130 144.028046,170.230225 145.254715,168.946106 
	C145.739319,168.438828 145.849228,167.398285 145.826889,166.609146 
	C145.602509,158.684769 145.000137,150.756241 145.148926,142.841019 
	C145.260162,136.921906 146.317261,131.020569 147.013123,125.902298 
M117.319473,23.192238 
	C116.877747,23.140862 116.436028,23.089485 115.681152,22.538866 
	C114.768318,22.631187 113.855476,22.723509 112.236137,22.593023 
	C111.506935,22.666775 110.777733,22.740528 109.520676,22.522930 
	C108.554680,22.522930 107.588684,22.522930 106.064697,22.522930 
	C106.877357,23.599192 107.421272,24.319529 108.000053,25.789328 
	C109.737373,30.239931 111.378128,34.731102 113.228180,39.134342 
	C122.947853,62.267811 132.695923,85.389526 142.554260,108.463989 
	C143.000717,109.508934 144.581940,110.681145 145.682419,110.730606 
	C150.984253,110.968903 156.306915,110.956459 161.611404,110.752769 
	C162.732773,110.709709 164.404465,109.745987 164.815750,108.778465 
	C169.996277,96.591606 174.991898,84.326149 180.668564,71.739212 
	C182.110962,66.566475 185.242416,62.206333 186.351395,56.642967 
	C187.822754,49.261646 191.732697,42.343899 194.784836,35.309418 
	C196.387848,31.614851 198.564835,28.167755 200.138229,24.462660 
	C200.771530,22.971300 200.482544,21.088289 200.613327,19.383528 
	C198.926666,19.520870 197.242325,19.710106 195.552887,19.784954 
	C191.819427,19.950363 188.078964,20.216936 184.350586,20.112776 
	C182.821487,20.070057 181.316177,19.176504 179.800034,18.669989 
	C179.311371,20.250902 178.529861,21.806736 178.391891,23.417688 
	C178.051163,27.396076 176.008850,32.493702 171.419891,32.674927 
	C165.053650,32.926338 158.670044,32.738113 152.293884,32.738113 
	C152.077393,32.384090 151.860916,32.030071 151.644440,31.676048 
	C154.830215,29.329590 158.066727,27.047575 161.174210,24.601646 
	C162.258713,23.748039 163.332458,22.603134 163.788483,21.362423 
	C163.976562,20.850649 162.638321,19.195549 161.794373,19.019640 
	C160.437454,18.736814 158.874374,19.101349 157.475800,19.478996 
	C156.527634,19.735027 155.723663,20.912527 154.835220,20.936457 
	C150.516647,21.052769 146.191101,20.935701 141.868515,20.868576 
	C138.208191,20.811737 134.285751,21.527998 130.944550,20.454350 
	C124.444992,18.365810 123.775925,18.513000 123.424950,25.227526 
	C123.184303,25.183901 122.943665,25.140276 122.270653,24.610817 
	C120.832726,24.203621 119.394806,23.796425 117.319473,23.192238 
M100.678978,128.661377 
	C100.678978,143.060455 100.678978,157.459549 100.678978,172.434113 
	C111.610870,172.434113 122.572624,172.528580 133.528763,172.323563 
	C135.025452,172.295563 136.494202,170.773849 137.975891,169.943726 
	C136.389038,169.030670 134.823593,167.374298 133.211792,167.327911 
	C124.268661,167.070587 115.314262,167.204544 106.009148,167.204544 
	C106.009148,165.941666 106.009216,165.323212 106.009132,164.704742 
	C106.007439,152.381302 106.058998,140.057343 105.938637,127.735054 
	C105.923058,126.140587 105.341705,124.309898 104.396393,123.063408 
	C103.887573,122.392479 102.049088,122.729950 100.810539,122.612442 
	C100.769890,124.314178 100.729240,126.015907 100.678978,128.661377 
M85.442596,149.959152 
	C87.566162,149.959152 89.689728,149.959152 93.265816,149.959152 
	C91.751457,147.654480 90.974281,145.292206 90.032661,145.224731 
	C82.288704,144.669846 74.232903,143.536148 67.291252,148.125015 
	C58.325039,154.052246 59.569450,163.213699 60.202564,172.162231 
	C72.643456,172.162231 84.691795,172.162231 96.675316,172.162231 
	C97.766266,168.166962 96.031425,167.167328 92.627724,167.210281 
	C83.517952,167.325272 74.405769,167.249481 65.357910,167.249481 
	C64.476837,157.031052 69.678337,150.459885 78.507484,149.988541 
	C80.497047,149.882339 82.496628,149.963608 85.442596,149.959152 
M259.473938,162.822403 
	C262.652069,168.878067 268.054871,172.374329 274.455475,172.760529 
	C279.861084,173.086700 285.579956,171.923645 290.810028,170.295166 
	C295.073547,168.967651 297.743408,162.593353 297.134979,158.301483 
	C296.219666,151.845184 292.025360,148.060791 283.747955,146.363907 
	C283.139435,147.612411 282.508789,148.906326 281.778870,150.403839 
	C283.618195,151.282501 285.258575,151.977280 286.815247,152.825653 
	C292.604980,155.981018 292.909576,162.327209 287.366577,165.836884 
	C281.758942,169.387527 269.633545,169.037796 265.003937,161.142212 
	C263.338837,158.302490 261.397125,157.000366 258.028778,158.404739 
	C258.384857,159.652145 258.742279,160.904160 259.473938,162.822403 
M266.704071,131.452911 
	C271.730194,124.411003 283.510468,125.213837 289.016388,133.117249 
	C290.824921,135.713257 292.409668,138.068375 296.612335,136.246780 
	C296.036682,134.773880 295.611542,133.232605 294.869904,131.862686 
	C290.276917,123.378853 280.590424,119.577232 270.239044,122.117325 
	C264.883057,123.431618 260.545013,127.995697 259.989227,132.788513 
	C259.206146,139.541733 261.993835,142.835510 267.759888,146.270615 
	C268.768402,146.871429 270.758911,145.823944 272.295868,145.537720 
	C271.766296,144.119171 271.612762,141.861359 270.642426,141.426590 
	C266.320709,139.490204 265.248505,136.374237 266.704071,131.452911 
M30.738367,169.788086 
	C31.934843,173.344315 34.402290,172.630081 37.602383,171.845612 
	C31.078032,155.789383 24.847969,140.079330 18.234135,124.532539 
	C17.055798,121.762688 14.104088,120.985863 11.671815,123.071762 
	C17.994722,138.604401 24.201778,153.852448 30.738367,169.788086 
M202.640488,133.540115 
	C202.707565,131.058075 203.139618,128.509888 202.706238,126.118546 
	C202.442017,124.660522 201.070694,122.634071 199.801804,122.280685 
	C196.776382,121.438087 196.951813,123.965942 196.954224,126.005058 
	C196.966980,136.793564 197.077087,147.583847 196.909958,158.369736 
	C196.840485,162.852188 196.166809,167.325287 195.760056,171.890686 
	C200.388168,172.837219 203.021896,172.046860 202.971878,167.366486 
	C202.854904,156.420883 202.750748,145.475143 202.640488,133.540115 
M253.330383,122.186150 
	C249.741104,121.743820 249.871292,124.053024 249.865402,126.584167 
	C249.832138,140.853180 249.653214,155.122086 249.692764,169.390564 
	C249.695557,170.389938 251.072113,172.202499 251.787750,172.191544 
	C252.862930,172.175140 254.673386,171.023331 254.848404,170.102783 
	C255.513794,166.602859 255.972992,162.997162 255.920654,159.439667 
	C255.755783,148.231064 255.347137,137.025558 254.958847,125.821442 
	C254.922546,124.774124 254.362747,123.744942 253.330383,122.186150 
M95.955475,122.205719 
	C84.066200,122.205719 72.176926,122.205719 60.203152,122.205719 
	C59.476982,126.022263 59.835472,128.212296 64.347237,128.093338 
	C73.618813,127.848892 82.902924,127.922707 92.178726,128.067245 
	C96.227669,128.130341 97.670998,126.488678 95.955475,122.205719 
M56.779610,122.741493 
	C55.019863,123.045265 52.143875,122.797775 51.678211,123.740662 
	C48.177227,130.829605 45.151016,138.153030 41.882172,145.618210 
	C47.893997,146.352219 47.964310,146.380539 49.769547,141.898697 
	C52.229076,135.792465 54.568241,129.637741 56.779610,122.741493 
M245.127335,126.191498 
	C245.697052,123.405060 243.963455,122.230942 241.718216,122.250526 
	C240.637466,122.259949 238.816971,123.591469 238.679031,124.523682 
	C238.491776,125.789284 239.521347,128.357010 240.161804,128.400269 
	C241.717773,128.505371 243.350449,127.475349 245.127335,126.191498 
z"/>
<path fill="#B6B6F7" opacity="1.000000" stroke="none" 
	d="
M122.703033,25.096653 
	C122.943665,25.140276 123.184303,25.183901 123.961075,25.516010 
	C125.318619,26.204235 126.140030,26.603979 127.278824,27.161953 
	C128.516220,28.453192 129.758377,29.449770 130.305191,30.740847 
	C134.588226,40.853474 138.726639,51.027245 142.932297,61.172768 
	C146.316788,69.337326 149.732895,77.488777 153.186676,85.770012 
	C154.597763,83.262810 155.797318,81.131485 157.300751,78.937866 
	C157.772232,77.923874 157.939850,76.972176 158.111633,75.672165 
	C158.793640,73.883080 159.471451,72.442299 160.360260,70.808228 
	C160.714172,70.074181 160.857101,69.533424 161.038055,68.732437 
	C161.169815,68.324005 161.263535,68.175812 161.669891,67.856049 
	C163.997177,67.139122 166.011810,66.593765 168.377502,66.049179 
	C172.521179,65.992729 176.313812,65.935516 180.089813,66.321030 
	C180.060379,68.536095 180.047577,70.308441 180.034790,72.080780 
	C174.991898,84.326149 169.996277,96.591606 164.815750,108.778465 
	C164.404465,109.745987 162.732773,110.709709 161.611404,110.752769 
	C156.306915,110.956459 150.984253,110.968903 145.682419,110.730606 
	C144.581940,110.681145 143.000717,109.508934 142.554260,108.463989 
	C132.695923,85.389526 122.947853,62.267811 113.228180,39.134342 
	C111.378128,34.731102 109.737373,30.239931 108.172501,25.172354 
	C108.912811,23.975014 109.480667,23.394650 110.048531,22.814281 
	C110.777733,22.740528 111.506935,22.666775 112.769180,22.955442 
	C114.199585,23.224609 115.096939,23.131357 115.994301,23.038109 
	C116.436028,23.089485 116.877747,23.140862 117.756477,23.602922 
	C119.696663,24.374622 121.199852,24.735638 122.703033,25.096653 
z"/>
<path fill="#AAACDE" opacity="1.000000" stroke="none" 
	d="
M168.026459,66.048416 
	C166.011810,66.593765 163.997177,67.139122 161.623657,67.463951 
	C162.132706,66.532433 163.000595,65.821442 163.393524,65.499550 
	C163.502197,63.085052 162.936401,60.643032 163.820221,58.964138 
	C166.056168,54.716774 168.943436,50.812283 171.915451,46.238487 
	C162.055298,46.238487 153.665894,46.238487 143.655411,46.238487 
	C147.461395,53.527042 150.881165,59.857197 154.034744,66.317307 
	C154.600952,67.477211 154.486404,69.383553 153.899460,70.549057 
	C153.497299,71.347626 151.439774,72.093239 150.645737,71.727127 
	C149.511261,71.204056 148.445038,69.766220 148.064911,68.503708 
	C146.212799,62.352077 144.619736,56.122837 142.870667,49.939259 
	C142.678268,49.259071 142.194931,48.315834 141.641586,48.140160 
	C138.481552,47.136948 137.669235,45.485329 139.684158,42.667641 
	C141.771912,39.748085 143.517731,41.559589 145.383728,43.225990 
	C145.903458,43.415565 146.356064,43.373604 147.222153,43.474701 
	C156.195023,43.244377 164.947952,44.468395 173.286591,40.601498 
	C173.776978,40.531143 173.969833,40.316460 174.429596,40.075802 
	C176.786163,41.982872 177.448257,43.561295 175.518768,46.319878 
	C172.706955,50.339909 170.722473,54.938614 168.169312,59.692707 
	C180.719543,60.576141 180.852768,60.632919 185.150482,50.548298 
	C188.848160,41.871681 192.195663,33.045830 195.813477,23.997141 
	C193.978516,23.997141 192.653168,24.000946 191.327850,23.996534 
	C181.238907,23.962957 181.410248,23.989981 179.734528,34.421375 
	C179.520538,35.753418 175.426697,37.950417 174.800858,37.487606 
	C170.600983,34.381798 166.280289,35.876400 161.599426,36.293819 
	C160.556549,36.385578 159.865936,36.491077 158.719940,36.478035 
	C155.145508,36.419567 152.026474,36.479641 148.745575,36.461281 
	C148.310303,36.491360 148.212585,36.687504 148.051361,37.228592 
	C145.649338,38.741550 143.122528,39.532387 142.317383,36.479824 
	C141.945862,35.071285 144.000137,31.514105 144.584167,31.595297 
	C150.545288,32.424015 151.218567,26.683445 154.657608,24.447874 
	C147.144852,23.997656 139.876404,23.791542 132.634064,24.135296 
	C130.702148,24.226994 128.850143,26.001696 126.961449,27.003719 
	C126.140030,26.603979 125.318619,26.204235 124.318611,25.598125 
	C123.775925,18.513000 124.444992,18.365810 130.944550,20.454350 
	C134.285751,21.527998 138.208191,20.811737 141.868515,20.868576 
	C146.191101,20.935701 150.516647,21.052769 154.835220,20.936457 
	C155.723663,20.912527 156.527634,19.735027 157.475800,19.478996 
	C158.874374,19.101349 160.437454,18.736814 161.794373,19.019640 
	C162.638321,19.195549 163.976562,20.850649 163.788483,21.362423 
	C163.332458,22.603134 162.258713,23.748039 161.174210,24.601646 
	C158.066727,27.047575 154.830215,29.329590 151.644440,31.676048 
	C151.860916,32.030071 152.077393,32.384090 152.293884,32.738113 
	C158.670044,32.738113 165.053650,32.926338 171.419891,32.674927 
	C176.008850,32.493702 178.051163,27.396076 178.391891,23.417688 
	C178.529861,21.806736 179.311371,20.250902 179.800049,18.669991 
	C181.316177,19.176504 182.821487,20.070057 184.350586,20.112776 
	C188.078964,20.216936 191.819427,19.950363 195.552887,19.784954 
	C197.242325,19.710106 198.926666,19.520870 200.613327,19.383528 
	C200.482544,21.088289 200.771530,22.971300 200.138229,24.462660 
	C198.564835,28.167755 196.387848,31.614851 194.784836,35.309418 
	C191.732697,42.343899 187.822754,49.261646 186.351395,56.642967 
	C185.242416,62.206333 182.110962,66.566475 180.351669,71.909996 
	C180.047577,70.308441 180.060379,68.536095 180.451416,66.209229 
	C179.340729,63.097668 179.334625,62.962616 172.821472,63.256992 
	C171.060059,63.336601 169.347824,64.504181 167.613007,65.172394 
	C167.750824,65.464401 167.888641,65.756409 168.026459,66.048416 
z"/>
<path fill="#DFDAC7" opacity="1.000000" stroke="none" 
	d="
M146.954590,123.890533 
	C147.969574,123.311638 148.991852,122.218880 149.998413,122.233177 
	C160.280991,122.379181 170.587967,122.343964 180.832245,123.108238 
	C187.619370,123.614594 195.764954,129.640839 193.713425,138.034195 
	C192.808975,141.734543 189.779434,144.915466 187.424164,148.813019 
	C192.835587,153.771622 194.892944,160.845474 193.835876,168.828201 
	C193.666718,170.105698 192.394989,171.237228 191.632980,172.436234 
	C190.415863,171.202271 188.584610,170.157440 188.132111,168.688034 
	C187.522430,166.708282 188.183319,164.377075 187.933456,162.239441 
	C187.097870,155.090302 181.646683,150.224167 174.187302,149.983704 
	C169.697403,149.838974 165.199036,149.957092 159.678680,149.957092 
	C159.678680,155.974167 159.727722,161.892181 159.661911,167.808914 
	C159.615997,171.937469 159.224350,172.194214 154.262512,171.908890 
	C154.262512,163.029892 154.262512,154.132568 154.262512,144.856812 
	C161.052994,144.856812 167.679092,144.961929 174.298950,144.804443 
	C176.902466,144.742477 179.532318,144.266083 182.078308,143.670959 
	C185.746155,142.813553 187.868973,140.149246 187.855606,136.545761 
	C187.841644,132.780441 185.771774,129.863708 181.888245,128.967148 
	C179.359741,128.383423 176.714890,128.106323 174.115952,128.062927 
	C166.951889,127.943314 159.779694,128.162628 152.621811,127.920517 
	C150.731644,127.856590 148.881592,126.607292 146.986633,125.201645 
	C146.958298,124.297501 146.956436,124.094009 146.954590,123.890533 
z"/>
<path fill="#DED8C6" opacity="1.000000" stroke="none" 
	d="
M100.683784,128.189514 
	C100.729240,126.015907 100.769890,124.314178 100.810539,122.612442 
	C102.049088,122.729950 103.887573,122.392479 104.396393,123.063408 
	C105.341705,124.309898 105.923058,126.140587 105.938637,127.735054 
	C106.058998,140.057343 106.007439,152.381302 106.009132,164.704742 
	C106.009216,165.323212 106.009148,165.941666 106.009148,167.204544 
	C115.314262,167.204544 124.268661,167.070587 133.211792,167.327911 
	C134.823593,167.374298 136.389038,169.030670 137.975891,169.943726 
	C136.494202,170.773849 135.025452,172.295563 133.528763,172.323563 
	C122.572624,172.528580 111.610870,172.434113 100.678978,172.434113 
	C100.678978,157.459549 100.678978,143.060455 100.683784,128.189514 
z"/>
<path fill="#DED9C6" opacity="1.000000" stroke="none" 
	d="
M84.967094,149.958862 
	C82.496628,149.963608 80.497047,149.882339 78.507484,149.988541 
	C69.678337,150.459885 64.476837,157.031052 65.357910,167.249481 
	C74.405769,167.249481 83.517952,167.325272 92.627724,167.210281 
	C96.031425,167.167328 97.766266,168.166962 96.675316,172.162231 
	C84.691795,172.162231 72.643456,172.162231 60.202564,172.162231 
	C59.569450,163.213699 58.325039,154.052246 67.291252,148.125015 
	C74.232903,143.536148 82.288704,144.669846 90.032661,145.224731 
	C90.974281,145.292206 91.751457,147.654480 93.265816,149.959152 
	C89.689728,149.959152 87.566162,149.959152 84.967094,149.958862 
z"/>
<path fill="#DBD6C2" opacity="1.000000" stroke="none" 
	d="
M146.577820,123.799904 
	C146.956436,124.094009 146.958298,124.297501 146.956665,124.806152 
	C146.317261,131.020569 145.260162,136.921906 145.148926,142.841019 
	C145.000137,150.756241 145.602509,158.684769 145.826889,166.609146 
	C145.849228,167.398285 145.739319,168.438828 145.254715,168.946106 
	C144.028046,170.230225 142.553055,171.277130 141.177536,172.419052 
	C140.454834,171.010620 139.122101,169.609375 139.105392,168.192612 
	C138.964279,156.230957 139.063873,144.266464 139.090302,132.302826 
	C139.093140,131.019135 139.090683,129.735443 139.090683,128.025406 
	C134.739792,128.025406 130.751404,128.355789 126.866676,127.865326 
	C125.278053,127.664749 123.913658,125.688248 122.447250,124.519669 
	C123.910149,123.710037 125.335281,122.296677 126.842941,122.202347 
	C131.642960,121.902061 136.479584,121.957535 141.289307,122.167633 
	C142.945831,122.239983 144.564880,123.170685 146.577820,123.799904 
z"/>
<path fill="#DED9C7" opacity="1.000000" stroke="none" 
	d="
M259.286804,162.489288 
	C258.742279,160.904160 258.384857,159.652145 258.028778,158.404739 
	C261.397125,157.000366 263.338837,158.302490 265.003937,161.142212 
	C269.633545,169.037796 281.758942,169.387527 287.366577,165.836884 
	C292.909576,162.327209 292.604980,155.981018 286.815247,152.825653 
	C285.258575,151.977280 283.618195,151.282501 281.778870,150.403839 
	C282.508789,148.906326 283.139435,147.612411 283.747955,146.363907 
	C292.025360,148.060791 296.219666,151.845184 297.134979,158.301483 
	C297.743408,162.593353 295.073547,168.967651 290.810028,170.295166 
	C285.579956,171.923645 279.861084,173.086700 274.455475,172.760529 
	C268.054871,172.374329 262.652069,168.878067 259.286804,162.489288 
z"/>
<path fill="#DAD6C3" opacity="1.000000" stroke="none" 
	d="
M266.465881,131.781097 
	C265.248505,136.374237 266.320709,139.490204 270.642426,141.426590 
	C271.612762,141.861359 271.766296,144.119171 272.295868,145.537720 
	C270.758911,145.823944 268.768402,146.871429 267.759888,146.270615 
	C261.993835,142.835510 259.206146,139.541733 259.989227,132.788513 
	C260.545013,127.995697 264.883057,123.431618 270.239044,122.117325 
	C280.590424,119.577232 290.276917,123.378853 294.869904,131.862686 
	C295.611542,133.232605 296.036682,134.773880 296.612335,136.246780 
	C292.409668,138.068375 290.824921,135.713257 289.016388,133.117249 
	C283.510468,125.213837 271.730194,124.411003 266.465881,131.781097 
z"/>
<path fill="#DCD8C5" opacity="1.000000" stroke="none" 
	d="
M30.573601,169.444275 
	C24.201778,153.852448 17.994722,138.604401 11.671815,123.071762 
	C14.104088,120.985863 17.055798,121.762688 18.234135,124.532539 
	C24.847969,140.079330 31.078032,155.789383 37.602383,171.845612 
	C34.402290,172.630081 31.934843,173.344315 30.573601,169.444275 
z"/>
<path fill="#D9D4BF" opacity="1.000000" stroke="none" 
	d="
M202.640945,134.034790 
	C202.750748,145.475143 202.854904,156.420883 202.971878,167.366486 
	C203.021896,172.046860 200.388168,172.837219 195.760056,171.890686 
	C196.166809,167.325287 196.840485,162.852188 196.909958,158.369736 
	C197.077087,147.583847 196.966980,136.793564 196.954224,126.005058 
	C196.951813,123.965942 196.776382,121.438087 199.801804,122.280685 
	C201.070694,122.634071 202.442017,124.660522 202.706238,126.118546 
	C203.139618,128.509888 202.707565,131.058075 202.640945,134.034790 
z"/>
<path fill="#E7E2CF" opacity="1.000000" stroke="none" 
	d="
M253.688202,122.446747 
	C254.362747,123.744942 254.922546,124.774124 254.958847,125.821442 
	C255.347137,137.025558 255.755783,148.231064 255.920654,159.439667 
	C255.972992,162.997162 255.513794,166.602859 254.848404,170.102783 
	C254.673386,171.023331 252.862930,172.175140 251.787750,172.191544 
	C251.072113,172.202499 249.695557,170.389938 249.692764,169.390564 
	C249.653214,155.122086 249.832138,140.853180 249.865402,126.584167 
	C249.871292,124.053024 249.741104,121.743820 253.688202,122.446747 
z"/>
<path fill="#DFDBC5" opacity="1.000000" stroke="none" 
	d="
M96.355438,122.413017 
	C97.670998,126.488678 96.227669,128.130341 92.178726,128.067245 
	C82.902924,127.922707 73.618813,127.848892 64.347237,128.093338 
	C59.835472,128.212296 59.476982,126.022263 60.203152,122.205719 
	C72.176926,122.205719 84.066200,122.205719 96.355438,122.413017 
z"/>
<path fill="#D9D4C2" opacity="1.000000" stroke="none" 
	d="
M56.869312,123.122650 
	C54.568241,129.637741 52.229076,135.792465 49.769547,141.898697 
	C47.964310,146.380539 47.893997,146.352219 41.882172,145.618210 
	C45.151016,138.153030 48.177227,130.829605 51.678211,123.740662 
	C52.143875,122.797775 55.019863,123.045265 56.869312,123.122650 
z"/>
<path fill="#E1DDCD" opacity="1.000000" stroke="none" 
	d="
M225.015274,143.949432 
	C226.155716,144.005814 227.296158,144.062210 228.734909,144.133347 
	C228.949478,140.531631 228.318130,135.916702 234.879837,137.016296 
	C235.290421,137.016678 235.218094,136.956116 235.218094,136.956116 
	C236.473953,142.321121 235.918610,143.105347 229.024506,144.685669 
	C230.355942,146.756546 231.524948,148.574768 232.774902,151.049500 
	C231.646011,152.795090 230.436142,153.884186 229.226288,154.973297 
	C229.100891,153.821762 228.975494,152.670242 228.810455,151.154465 
	C227.439590,151.093842 225.988800,151.029678 224.124130,150.970459 
	C223.710266,150.975372 223.782516,151.033646 223.782516,151.033646 
	C223.814392,145.722549 219.467163,142.743240 217.490570,138.155869 
	C219.299683,137.392258 220.811859,137.132477 222.324051,136.872696 
	C222.499451,136.948257 222.674835,137.023819 223.017761,137.448959 
	C223.185287,137.798538 223.509735,138.046951 223.509735,138.046951 
	C223.509735,138.046951 223.879150,138.132584 223.932373,138.456543 
	C223.985596,138.780487 224.060287,139.078171 224.060287,139.078171 
	C224.134125,139.755890 224.207947,140.433594 224.142532,141.721558 
	C224.340622,142.871002 224.677948,143.410217 225.015274,143.949432 
z"/>
<path fill="#DEDAC8" opacity="1.000000" stroke="none" 
	d="
M229.280014,155.304657 
	C230.436142,153.884186 231.646011,152.795090 232.911591,151.403015 
	C237.741043,157.627228 242.514816,164.154419 247.730469,171.285812 
	C243.495087,172.003922 240.756790,172.493073 238.523270,168.409225 
	C236.025497,163.842255 232.443771,159.868149 229.280014,155.304657 
z"/>
<path fill="#DEDAC8" opacity="1.000000" stroke="none" 
	d="
M222.187042,136.549072 
	C220.811859,137.132477 219.299683,137.392258 217.437790,137.810699 
	C215.467682,135.851227 213.847275,133.733078 212.035187,131.105988 
	C211.700653,130.355362 211.507889,130.163956 211.265167,130.022842 
	C210.165268,128.595871 209.065369,127.168907 208.200928,125.269836 
	C209.660019,124.183327 210.883636,123.568932 212.107254,122.954544 
	C215.421509,127.378189 218.735764,131.801834 222.187042,136.549072 
z"/>
<path fill="#D9D5C3" opacity="1.000000" stroke="none" 
	d="
M223.674805,150.945435 
	C223.988541,152.603470 224.798645,154.378006 224.504257,155.945038 
	C224.342407,156.806503 222.351456,157.764496 221.128494,157.847946 
	C220.139816,157.915405 218.327820,156.861832 218.199509,156.087158 
	C217.995087,154.853058 218.548187,153.118881 219.417313,152.194595 
	C220.175995,151.387756 221.812912,151.406708 223.422165,151.047241 
	C223.782516,151.033646 223.710266,150.975372 223.674805,150.945435 
z"/>
<path fill="#D8D4C5" opacity="1.000000" stroke="none" 
	d="
M214.005936,166.001114 
	C214.027939,164.836426 213.630173,163.403336 214.165146,162.566650 
	C215.089188,161.121475 216.458267,159.812698 217.937454,158.964096 
	C218.361832,158.720642 220.729462,160.480286 220.618759,160.935532 
	C220.208954,162.620895 219.266754,164.239288 218.233826,165.673416 
	C217.915314,166.115662 216.669464,165.889999 215.191833,165.989151 
	C214.358963,166.005814 214.182449,166.003464 214.005936,166.001114 
z"/>
<path fill="#D6D2C1" opacity="1.000000" stroke="none" 
	d="
M245.039764,126.547058 
	C243.350449,127.475349 241.717773,128.505371 240.161804,128.400269 
	C239.521347,128.357010 238.491776,125.789284 238.679031,124.523682 
	C238.816971,123.591469 240.637466,122.259949 241.718216,122.250526 
	C243.963455,122.230942 245.697052,123.405060 245.039764,126.547058 
z"/>
<path fill="#D4D0C1" opacity="1.000000" stroke="none" 
	d="
M213.632202,166.050690 
	C214.182449,166.003464 214.358963,166.005814 214.800140,166.016296 
	C215.039856,166.349915 214.887421,166.736404 215.009521,166.991470 
	C216.339798,169.770676 215.561188,172.031158 212.682205,172.625763 
	C211.568207,172.855850 209.044647,171.140747 208.856537,170.026062 
	C208.363556,167.104813 210.465485,165.954819 213.632202,166.050690 
z"/>
<path fill="#D8D4C5" opacity="1.000000" stroke="none" 
	d="
M235.326691,137.046829 
	C235.275864,136.935425 235.201965,136.783463 235.099731,136.653854 
	C232.828629,133.775375 233.959030,131.576889 236.823456,130.351517 
	C237.601669,130.018600 239.979248,131.273911 240.188309,132.144684 
	C240.966568,135.386307 239.423065,137.201767 235.565720,136.963165 
	C235.218094,136.956116 235.290421,137.016678 235.326691,137.046829 
z"/>
<path fill="#DBD7C3" opacity="1.000000" stroke="none" 
	d="
M211.895279,122.637283 
	C210.883636,123.568932 209.660019,124.183327 208.123627,124.937164 
	C207.209793,124.416344 206.608765,123.756073 205.301544,122.320030 
	C208.047195,122.320030 209.865250,122.320030 211.895279,122.637283 
z"/>
<path fill="#AAACDE" opacity="1.000000" stroke="none" 
	d="
M109.784607,22.668606 
	C109.480667,23.394650 108.912811,23.975014 108.155060,24.797623 
	C107.421272,24.319529 106.877357,23.599192 106.064697,22.522930 
	C107.588684,22.522930 108.554680,22.522930 109.784607,22.668606 
z"/>
<path fill="#AAACDE" opacity="1.000000" stroke="none" 
	d="
M122.486847,24.853735 
	C121.199852,24.735638 119.696663,24.374622 118.075180,23.701420 
	C119.394806,23.796425 120.832726,24.203621 122.486847,24.853735 
z"/>
<path fill="#AAACDE" opacity="1.000000" stroke="none" 
	d="
M115.837723,22.788486 
	C115.096939,23.131357 114.199585,23.224609 113.122437,23.066847 
	C113.855476,22.723509 114.768318,22.631187 115.837723,22.788486 
z"/>
<path fill="#DBD7C3" opacity="1.000000" stroke="none" 
	d="
M224.950928,143.658676 
	C224.677948,143.410217 224.340622,142.871002 224.042480,142.051071 
	C224.349960,142.302872 224.618271,142.835403 224.950928,143.658676 
z"/>
<path fill="#DBD7C3" opacity="1.000000" stroke="none" 
	d="
M211.251373,130.256195 
	C211.507889,130.163956 211.700653,130.355362 211.924408,130.785950 
	C211.670517,130.937897 211.414597,130.776123 211.251373,130.256195 
z"/>
<path fill="#DBD7C3" opacity="1.000000" stroke="none" 
	d="
M223.501434,137.925537 
	C223.509735,138.046951 223.185287,137.798538 223.133698,137.710907 
	C223.082123,137.623260 223.493134,137.804138 223.501434,137.925537 
z"/>
<path fill="#DBD7C3" opacity="1.000000" stroke="none" 
	d="
M224.172668,139.021454 
	C224.060287,139.078171 223.985596,138.780487 224.008575,138.630157 
	C224.031540,138.479843 224.300232,138.601730 224.300232,138.601730 
	C224.300232,138.601730 224.285049,138.964737 224.172668,139.021454 
z"/>
<path fill="#040407" opacity="1.000000" stroke="none" 
	d="
M161.951706,36.307564 
	C166.280289,35.876400 170.600983,34.381798 174.800858,37.487606 
	C175.426697,37.950417 179.520538,35.753418 179.734528,34.421375 
	C181.410248,23.989981 181.238907,23.962957 191.327850,23.996534 
	C192.653168,24.000946 193.978516,23.997141 195.813477,23.997141 
	C192.195663,33.045830 188.848160,41.871681 185.150482,50.548298 
	C180.852768,60.632919 180.719543,60.576141 168.169312,59.692707 
	C170.722473,54.938614 172.706955,50.339909 175.518768,46.319878 
	C177.448257,43.561295 176.786163,41.982872 174.246033,40.125381 
	C173.467316,40.213600 173.256439,40.351097 173.076019,40.535297 
	C164.947952,44.468395 156.195023,43.244377 147.049713,43.386879 
	C146.081406,43.102146 145.699005,43.048298 145.316620,42.994450 
	C143.517731,41.559589 141.771912,39.748085 139.684158,42.667641 
	C137.669235,45.485329 138.481552,47.136948 141.641586,48.140160 
	C142.194931,48.315834 142.678268,49.259071 142.870667,49.939259 
	C144.619736,56.122837 146.212799,62.352077 148.064911,68.503708 
	C148.445038,69.766220 149.511261,71.204056 150.645737,71.727127 
	C151.439774,72.093239 153.497299,71.347626 153.899460,70.549057 
	C154.486404,69.383553 154.600952,67.477211 154.034744,66.317307 
	C150.881165,59.857197 147.461395,53.527042 143.655411,46.238487 
	C153.665894,46.238487 162.055298,46.238487 171.915451,46.238487 
	C168.943436,50.812283 166.056168,54.716774 163.820221,58.964138 
	C162.936401,60.643032 163.502197,63.085052 163.393524,65.499550 
	C163.000595,65.821442 162.132706,66.532433 161.311035,67.635529 
	C161.263535,68.175812 161.169815,68.324005 160.785675,68.891273 
	C160.379913,69.874077 160.264572,70.437798 160.149246,71.001518 
	C159.471451,72.442299 158.793640,73.883080 157.873840,75.905670 
	C157.420197,77.325050 157.208527,78.162605 156.996857,79.000160 
	C155.797318,81.131485 154.597763,83.262810 153.186676,85.770012 
	C149.732895,77.488777 146.316788,69.337326 142.932297,61.172768 
	C138.726639,51.027245 134.588226,40.853474 130.305191,30.740847 
	C129.758377,29.449770 128.516220,28.453192 127.278824,27.161949 
	C128.850143,26.001696 130.702148,24.226994 132.634064,24.135296 
	C139.876404,23.791542 147.144852,23.997656 154.657608,24.447874 
	C151.218567,26.683445 150.545288,32.424015 144.584167,31.595297 
	C144.000137,31.514105 141.945862,35.071285 142.317383,36.479824 
	C143.122528,39.532387 145.649338,38.741550 148.171051,37.182716 
	C148.684448,36.798084 148.810257,36.684814 148.907425,36.539711 
	C152.026474,36.479641 155.145508,36.419567 158.946945,36.587875 
	C160.403458,36.646694 161.177582,36.477127 161.951706,36.307564 
z"/>
<path fill="#13152A" opacity="1.000000" stroke="none" 
	d="
M168.377502,66.049179 
	C167.888641,65.756409 167.750824,65.464401 167.613007,65.172394 
	C169.347824,64.504181 171.060059,63.336601 172.821472,63.256992 
	C179.334625,62.962616 179.340729,63.097668 180.468048,65.766510 
	C176.313812,65.935516 172.521179,65.992729 168.377502,66.049179 
z"/>
<path fill="#AAACDE" opacity="1.000000" stroke="none" 
	d="
M157.300751,78.937866 
	C157.208527,78.162605 157.420197,77.325050 157.869659,76.253983 
	C157.939850,76.972176 157.772232,77.923874 157.300751,78.937866 
z"/>
<path fill="#AAACDE" opacity="1.000000" stroke="none" 
	d="
M160.360260,70.808228 
	C160.264572,70.437798 160.379913,69.874077 160.747635,69.151520 
	C160.857101,69.533424 160.714172,70.074181 160.360260,70.808228 
z"/>
<path fill="#040407" opacity="1.000000" stroke="none" 
	d="
M161.599426,36.293823 
	C161.177582,36.477127 160.403458,36.646694 159.402344,36.706413 
	C159.865936,36.491077 160.556549,36.385578 161.599426,36.293823 
z"/>
<path fill="#040407" opacity="1.000000" stroke="none" 
	d="
M145.383728,43.225990 
	C145.699005,43.048298 146.081406,43.102146 146.636230,43.243820 
	C146.356064,43.373604 145.903458,43.415565 145.383728,43.225990 
z"/>
<path fill="#040407" opacity="1.000000" stroke="none" 
	d="
M148.745575,36.461281 
	C148.810257,36.684814 148.684448,36.798084 148.410278,36.925400 
	C148.212585,36.687504 148.310303,36.491360 148.745575,36.461281 
z"/>
<path fill="#040407" opacity="1.000000" stroke="none" 
	d="
M173.286591,40.601498 
	C173.256439,40.351097 173.467316,40.213600 173.892181,40.073227 
	C173.969833,40.316460 173.776978,40.531143 173.286591,40.601498 
z"/>
</svg>